<svg width="22" height="22" viewBox="0 0 22 22" fill="none" xmlns="http://www.w3.org/2000/svg">
<path d="M15.625 13.8189H14.6375L14.2875 13.4814C15.5548 12.0114 16.2514 10.1347 16.25 8.19385C16.25 6.58688 15.7735 5.01599 14.8807 3.67984C13.9879 2.34369 12.719 1.30229 11.2343 0.68733C9.74966 0.0723681 8.11599 -0.088534 6.53989 0.224971C4.9638 0.538476 3.51606 1.31231 2.37976 2.44861C1.24346 3.58491 0.469628 5.03265 0.156123 6.60874C-0.157382 8.18484 0.00352044 9.8185 0.618482 11.3032C1.23344 12.7878 2.27485 14.0568 3.611 14.9495C4.94714 15.8423 6.51803 16.3189 8.125 16.3189C10.1375 16.3189 11.9875 15.5814 13.4125 14.3564L13.75 14.7064V15.6939L20 21.9314L21.8625 20.0689L15.625 13.8189ZM8.125 13.8189C5.0125 13.8189 2.5 11.3064 2.5 8.19385C2.5 5.08135 5.0125 2.56885 8.125 2.56885C11.2375 2.56885 13.75 5.08135 13.75 8.19385C13.75 11.3064 11.2375 13.8189 8.125 13.8189Z" fill="black"/>
</svg>
